<svg width="22" height="22" viewBox="0 0 22 22" fill="none" xmlns="http://www.w3.org/2000/svg">
<path d="M18.3614 7.07609L13.5489 2.26359C13.485 2.19977 13.4092 2.14916 13.3257 2.11466C13.2423 2.08015 13.1528 2.06243 13.0625 2.0625H4.8125C4.44783 2.0625 4.09809 2.20737 3.84023 2.46523C3.58237 2.72309 3.4375 3.07283 3.4375 3.4375V18.5625C3.4375 18.9272 3.58237 19.2769 3.84023 19.5348C4.09809 19.7926 4.44783 19.9375 4.8125 19.9375H17.1875C17.5522 19.9375 17.9019 19.7926 18.1598 19.5348C18.4176 19.2769 18.5625 18.9272 18.5625 18.5625V7.5625C18.5626 7.47219 18.5448 7.38275 18.5103 7.29929C18.4758 7.21583 18.4252 7.13999 18.3614 7.07609ZM13.75 4.40945L16.2155 6.875H13.75V4.40945ZM17.1875 18.5625H4.8125V3.4375H12.375V7.5625C12.375 7.74484 12.4474 7.9197 12.5764 8.04864C12.7053 8.17757 12.8802 8.25 13.0625 8.25H17.1875V18.5625ZM13.5489 11.8886C13.6128 11.9525 13.6635 12.0283 13.698 12.1118C13.7326 12.1952 13.7504 12.2847 13.7504 12.375C13.7504 12.4653 13.7326 12.5548 13.698 12.6382C13.6635 12.7217 13.6128 12.7975 13.5489 12.8614C13.485 12.9253 13.4092 12.976 13.3257 13.0105C13.2423 13.0451 13.1528 13.0629 13.0625 13.0629C12.9722 13.0629 12.8827 13.0451 12.7993 13.0105C12.7158 12.976 12.64 12.9253 12.5761 12.8614L11.6875 11.972V15.8125C11.6875 15.9948 11.6151 16.1697 11.4861 16.2986C11.3572 16.4276 11.1823 16.5 11 16.5C10.8177 16.5 10.6428 16.4276 10.5139 16.2986C10.3849 16.1697 10.3125 15.9948 10.3125 15.8125V11.972L9.42391 12.8614C9.36003 12.9253 9.2842 12.976 9.20074 13.0105C9.11728 13.0451 9.02783 13.0629 8.9375 13.0629C8.84717 13.0629 8.75772 13.0451 8.67426 13.0105C8.5908 12.976 8.51497 12.9253 8.45109 12.8614C8.38722 12.7975 8.33655 12.7217 8.30198 12.6382C8.26741 12.5548 8.24962 12.4653 8.24962 12.375C8.24962 12.2847 8.26741 12.1952 8.30198 12.1118C8.33655 12.0283 8.38722 11.9525 8.45109 11.8886L10.5136 9.82609C10.5774 9.76217 10.6533 9.71146 10.7367 9.67687C10.8202 9.64227 10.9097 9.62446 11 9.62446C11.0903 9.62446 11.1798 9.64227 11.2633 9.67687C11.3467 9.71146 11.4226 9.76217 11.4864 9.82609L13.5489 11.8886Z" fill="#6DDA69"/>
</svg>
