<svg width="21" height="21" viewBox="0 0 21 21" fill="none" xmlns="http://www.w3.org/2000/svg">
<g clip-path="url(#clip0_49_172)">
<path fill-rule="evenodd" clip-rule="evenodd" d="M5.55515 11.0769L9.26691 14.7919C9.5235 15.0478 9.93891 15.0478 10.1948 14.7919C10.4514 14.5294 10.4514 14.1159 10.1948 13.86L7.49044 11.1562H14.4375C14.8004 11.1562 15.0938 10.8623 15.0938 10.5C15.0938 10.1371 14.8004 9.84375 14.4375 9.84375H7.49044L10.1948 7.13936C10.4514 6.88277 10.4514 6.46671 10.1948 6.21142C9.93891 5.95483 9.5235 5.95483 9.26691 6.21142L5.55515 9.92314C5.39765 10.0806 5.34843 10.2959 5.38452 10.5C5.34843 10.7041 5.39765 10.9194 5.55515 11.0769ZM2.625 0H18.375C19.8247 0 21 1.17534 21 2.625V18.375C21 19.8253 19.8247 21 18.375 21H2.625C1.17534 21 0 19.8253 0 18.375V2.625C0 1.17534 1.17534 0 2.625 0Z" fill="#393939"/>
</g>
<defs>
<clipPath id="clip0_49_172">
<rect width="21" height="21" fill="white" transform="matrix(-1 0 0 1 21 0)"/>
</clipPath>
</defs>
</svg>
