<svg width="21" height="21" viewBox="0 0 21 21" fill="none" xmlns="http://www.w3.org/2000/svg">
<path fill-rule="evenodd" clip-rule="evenodd" d="M15.4448 11.0769L11.7331 14.7919C11.4765 15.0478 11.0611 15.0478 10.8052 14.7919C10.5486 14.5294 10.5486 14.1159 10.8052 13.86L13.5096 11.1562H6.5625C6.19959 11.1562 5.90625 10.8623 5.90625 10.5C5.90625 10.1371 6.19959 9.84375 6.5625 9.84375H13.5096L10.8052 7.13936C10.5486 6.88277 10.5486 6.46671 10.8052 6.21142C11.0611 5.95483 11.4765 5.95483 11.7331 6.21142L15.4448 9.92314C15.6023 10.0806 15.6516 10.2959 15.6155 10.5C15.6516 10.7041 15.6023 10.9194 15.4448 11.0769ZM18.375 0H2.625C1.17534 0 0 1.17534 0 2.625V18.375C0 19.8253 1.17534 21 2.625 21H18.375C19.8247 21 21 19.8253 21 18.375V2.625C21 1.17534 19.8247 0 18.375 0Z" fill="#393939"/>
</svg>
