<svg width="24" height="18" viewBox="0 0 24 18" fill="none" xmlns="http://www.w3.org/2000/svg">
<path d="M22.125 11.2767H18.7397C18.7463 11.1521 18.75 11.0274 18.75 10.9017C18.75 9.01207 17.9993 7.1998 16.6631 5.8636C15.3269 4.5274 13.5147 3.77674 11.625 3.77674C9.73533 3.77674 7.92306 4.5274 6.58686 5.8636C5.25067 7.1998 4.5 9.01207 4.5 10.9017C4.5 11.0274 4.5 11.1521 4.51031 11.2767H1.125C0.826631 11.2767 0.540483 11.3953 0.329505 11.6062C0.118526 11.8172 0 12.1034 0 12.4017C0 12.7001 0.118526 12.9863 0.329505 13.1972C0.540483 13.4082 0.826631 13.5267 1.125 13.5267H22.125C22.4234 13.5267 22.7095 13.4082 22.9205 13.1972C23.1315 12.9863 23.25 12.7001 23.25 12.4017C23.25 12.1034 23.1315 11.8172 22.9205 11.6062C22.7095 11.3953 22.4234 11.2767 22.125 11.2767ZM6.75 10.9017C6.75 9.60881 7.26361 8.36883 8.17785 7.45459C9.09209 6.54035 10.3321 6.02674 11.625 6.02674C12.9179 6.02674 14.1579 6.54035 15.0721 7.45459C15.9864 8.36883 16.5 9.60881 16.5 10.9017C16.5 11.0274 16.4934 11.1521 16.4841 11.2767H6.76594C6.75656 11.1521 6.75 11.0274 6.75 10.9017ZM20.25 16.1517C20.25 16.4501 20.1315 16.7363 19.9205 16.9472C19.7095 17.1582 19.4234 17.2767 19.125 17.2767H4.125C3.82663 17.2767 3.54048 17.1582 3.3295 16.9472C3.11853 16.7363 3 16.4501 3 16.1517C3 15.8534 3.11853 15.5672 3.3295 15.3562C3.54048 15.1453 3.82663 15.0267 4.125 15.0267H19.125C19.4234 15.0267 19.7095 15.1453 19.9205 15.3562C20.1315 15.5672 20.25 15.8534 20.25 16.1517ZM0.808125 6.04642C0.902476 5.76355 1.10527 5.52971 1.37194 5.39629C1.63862 5.26286 1.94736 5.24077 2.23031 5.33486L3.35531 5.70986C3.49699 5.75529 3.62826 5.82837 3.7415 5.92487C3.85475 6.02138 3.94773 6.13938 4.01505 6.27206C4.08238 6.40475 4.12272 6.54946 4.13374 6.69784C4.14475 6.84622 4.12623 6.99531 4.07924 7.13648C4.03224 7.27765 3.95771 7.40809 3.85996 7.52026C3.76221 7.63243 3.64318 7.7241 3.50976 7.78995C3.37634 7.8558 3.23118 7.89454 3.08269 7.90391C2.9342 7.91328 2.78533 7.89311 2.64469 7.84455L1.51969 7.46955C1.37952 7.42284 1.24992 7.34897 1.1383 7.25217C1.02667 7.15537 0.935214 7.03752 0.869138 6.90537C0.803062 6.77322 0.763665 6.62935 0.753196 6.48197C0.742727 6.33459 0.761392 6.18659 0.808125 6.04642ZM6.05813 1.50799C6.00701 1.3668 5.98467 1.21682 5.99243 1.06687C6.00019 0.916918 6.03789 0.770038 6.1033 0.634885C6.16872 0.499733 6.26052 0.379043 6.37331 0.279928C6.4861 0.180813 6.61759 0.105279 6.76003 0.0577783C6.90247 0.0102777 7.05298 -0.0082287 7.20268 0.00334999C7.35238 0.0149287 7.49826 0.0563582 7.6317 0.125197C7.76514 0.194035 7.88345 0.288889 7.97966 0.404169C8.07586 0.519448 8.14802 0.65282 8.19187 0.796424L8.56687 1.92142C8.61799 2.06261 8.64033 2.21259 8.63257 2.36254C8.62481 2.51249 8.58711 2.65937 8.5217 2.79453C8.45628 2.92968 8.36448 3.05037 8.25169 3.14948C8.1389 3.2486 8.00741 3.32413 7.86497 3.37163C7.72253 3.41913 7.57202 3.43764 7.42232 3.42606C7.27262 3.41448 7.12674 3.37305 6.9933 3.30421C6.85986 3.23538 6.74155 3.14052 6.64534 3.02524C6.54914 2.90996 6.47698 2.77659 6.43313 2.63299L6.05813 1.50799ZM19.1831 7.13299C19.1364 6.99282 19.1177 6.84482 19.1282 6.69745C19.1387 6.55007 19.1781 6.40619 19.2441 6.27404C19.3102 6.14189 19.4017 6.02405 19.5133 5.92724C19.6249 5.83044 19.7545 5.75658 19.8947 5.70986L21.0197 5.33486C21.3018 5.24442 21.6081 5.26888 21.8723 5.40292C22.1364 5.53695 22.337 5.76976 22.4306 6.05081C22.5241 6.33185 22.5031 6.63846 22.372 6.90408C22.2409 7.16969 22.0103 7.37288 21.7303 7.46955L20.6053 7.84455C20.3224 7.93864 20.0136 7.91655 19.7469 7.78312C19.4803 7.6497 19.2775 7.41586 19.1831 7.13299ZM14.6831 1.92142L15.0581 0.796424C15.102 0.65282 15.1741 0.519448 15.2703 0.404169C15.3666 0.288889 15.4849 0.194035 15.6183 0.125197C15.7517 0.0563582 15.8976 0.0149287 16.0473 0.00334999C16.197 -0.0082287 16.3475 0.0102777 16.49 0.0577783C16.6324 0.105279 16.7639 0.180813 16.8767 0.279928C16.9895 0.379043 17.0813 0.499733 17.1467 0.634885C17.2121 0.770038 17.2498 0.916918 17.2576 1.06687C17.2653 1.21682 17.243 1.3668 17.1919 1.50799L16.8169 2.63299C16.773 2.77659 16.7009 2.90996 16.6047 3.02524C16.5084 3.14052 16.3901 3.23538 16.2567 3.30421C16.1233 3.37305 15.9774 3.41448 15.8277 3.42606C15.678 3.43764 15.5275 3.41913 15.385 3.37163C15.2426 3.32413 15.1111 3.2486 14.9983 3.14948C14.8855 3.05037 14.7937 2.92968 14.7283 2.79453C14.6629 2.65937 14.6252 2.51249 14.6174 2.36254C14.6097 2.21259 14.632 2.06261 14.6831 1.92142Z" fill="#313131"/>
</svg>
