<svg width="99" height="42" viewBox="0 0 99 42" fill="none" xmlns="http://www.w3.org/2000/svg">
<path d="M10.0031 20.2158C8.12267 20.2158 6.42641 19.8285 4.91431 19.0539C3.40222 18.2794 2.20029 17.1369 1.30854 15.6266C0.436181 14.1162 0 12.2766 0 10.1079C0 8.48133 0.261709 7.03873 0.785126 5.78008C1.32793 4.52144 2.06459 3.46611 2.99511 2.61411C3.94502 1.74274 5.03063 1.09405 6.25193 0.66805C7.47324 0.222683 8.77209 0 10.1485 0C11.2147 0 12.2131 0.125865 13.1436 0.377594C14.0741 0.609958 14.9659 0.958505 15.8188 1.42324L15.9352 5.22822H15.15L13.9287 2.93361C13.7349 2.54633 13.5216 2.19779 13.289 1.88797C13.0757 1.57815 12.7947 1.35546 12.4457 1.21992C11.9611 0.987551 11.3892 0.871368 10.7301 0.871368C9.5863 0.871368 8.53946 1.16183 7.58956 1.74274C6.65904 2.32365 5.91268 3.29184 5.35049 4.6473C4.7883 5.9834 4.50721 7.81328 4.50721 10.1369C4.50721 12.4412 4.76892 14.2711 5.29233 15.6266C5.83514 16.982 6.56211 17.9502 7.47324 18.5311C8.38438 19.0927 9.41183 19.3734 10.5556 19.3734C11.079 19.3734 11.5055 19.3347 11.8351 19.2573C12.1646 19.1798 12.4942 19.0733 12.8237 18.9378C13.2114 18.7829 13.5119 18.5602 13.7252 18.2697C13.9384 17.9599 14.1226 17.6113 14.2777 17.2241L15.3827 14.5809H16.1678L16.0515 18.7635C15.2179 19.2282 14.2971 19.5864 13.289 19.8382C12.2809 20.0899 11.1856 20.2158 10.0031 20.2158Z" fill="url(#paint0_linear_133_179)"/>
<path d="M26.5098 20.2158C25.3273 20.2158 24.1932 20.0028 23.1076 19.5768C22.022 19.1508 21.043 18.5214 20.1707 17.6888C19.3177 16.8368 18.6392 15.7815 18.1352 14.5228C17.6311 13.2642 17.3791 11.7925 17.3791 10.1079C17.3791 8.46196 17.6311 7.00968 18.1352 5.75104C18.6392 4.49239 19.3177 3.43707 20.1707 2.58506C21.043 1.73306 22.022 1.09405 23.1076 0.66805C24.2126 0.222683 25.3467 0 26.5098 0C27.673 0 28.7974 0.213002 29.883 0.639005C30.988 1.06501 31.9669 1.70401 32.8199 2.55602C33.6729 3.38866 34.3514 4.4343 34.8554 5.69295C35.3595 6.95159 35.6115 8.42324 35.6115 10.1079C35.6115 11.7538 35.3595 13.2061 34.8554 14.4647C34.3514 15.7234 33.6729 16.7787 32.8199 17.6307C31.9669 18.4827 30.9977 19.1314 29.912 19.5768C28.8264 20.0028 27.6924 20.2158 26.5098 20.2158ZM26.5098 19.3444C27.6148 19.3444 28.5066 19.0636 29.1851 18.5021C29.8636 17.9212 30.3579 16.953 30.6681 15.5975C30.9783 14.242 31.1334 12.4122 31.1334 10.1079C31.1334 7.8036 30.9783 5.9834 30.6681 4.6473C30.3579 3.29184 29.8636 2.33333 29.1851 1.77178C28.5066 1.19087 27.6148 0.900415 26.5098 0.900415C25.4242 0.900415 24.5325 1.19087 23.8346 1.77178C23.1561 2.33333 22.6617 3.29184 22.3516 4.6473C22.0414 5.9834 21.8863 7.8036 21.8863 10.1079C21.8863 12.4122 22.0414 14.242 22.3516 15.5975C22.6617 16.953 23.1561 17.9212 23.8346 18.5021C24.5325 19.0636 25.4242 19.3444 26.5098 19.3444Z" fill="url(#paint1_linear_133_179)"/>
<path d="M36.3782 19.722V19.112L36.9889 18.9378C37.3766 18.8216 37.6189 18.657 37.7158 18.444C37.8321 18.2116 37.8903 17.8921 37.8903 17.4855C37.9097 16.3624 37.9194 15.2393 37.9194 14.1162C37.9194 12.9931 37.9194 11.8603 37.9194 10.7178V9.52697C37.9194 8.40387 37.9194 7.28077 37.9194 6.15768C37.9194 5.03458 37.9097 3.91148 37.8903 2.78838C37.8903 2.38174 37.8418 2.07192 37.7449 1.85892C37.648 1.62656 37.4057 1.45228 37.0179 1.3361L36.3782 1.13278V0.522822H44.5203C46.7884 0.522822 48.5331 0.958506 49.7544 1.82987C50.9951 2.68188 51.6155 3.88243 51.6155 5.43154C51.6155 6.28354 51.2762 7.14523 50.5977 8.0166C49.9386 8.88797 48.9208 9.55602 47.5445 10.0207L51.4992 17.7178C51.8287 18.3568 52.3424 18.7925 53.0403 19.0249L53.5928 19.1411V19.722H48.4459L44.1132 10.6598H42.0195C42.0195 12.0346 42.0195 13.2739 42.0195 14.3776C42.0195 15.4813 42.0292 16.5173 42.0486 17.4855C42.0486 17.8728 42.1067 18.1826 42.223 18.4149C42.3587 18.6473 42.6108 18.8119 42.9791 18.9087L43.677 19.112V19.722H36.3782ZM42.0195 9.81743H43.5897C44.9661 9.81743 45.9742 9.46888 46.6139 8.77178C47.2537 8.07469 47.5735 7.00968 47.5735 5.57676C47.5735 4.14384 47.2634 3.08852 46.643 2.41079C46.042 1.71369 45.0631 1.36514 43.7061 1.36514H42.0486C42.0486 2.12033 42.0389 2.89488 42.0195 3.6888C42.0195 4.46335 42.0195 5.3444 42.0195 6.33195C42.0195 7.30014 42.0195 8.46196 42.0195 9.81743Z" fill="url(#paint2_linear_133_179)"/>
<path d="M54.5524 19.722V19.112L55.134 18.9668C55.5217 18.8506 55.7737 18.6763 55.8901 18.444C56.0064 18.2116 56.0645 17.8921 56.0645 17.4855C56.0839 16.3817 56.0936 15.2683 56.0936 14.1452C56.0936 13.0028 56.0936 11.8603 56.0936 10.7178V9.52697C56.0936 8.40387 56.0936 7.28077 56.0936 6.15768C56.0936 5.03458 56.0839 3.91148 56.0645 2.78838C56.0645 2.38174 55.9967 2.07192 55.861 1.85892C55.7447 1.62656 55.4926 1.4426 55.1049 1.30705L54.5524 1.13278V0.522822H61.5604C64.3907 0.522822 66.4456 1.05533 67.7251 2.12033C69.024 3.16597 69.6734 4.55048 69.6734 6.27386C69.6734 7.35823 69.402 8.36515 68.8592 9.29461C68.3358 10.2047 67.4634 10.9308 66.2421 11.473C65.0208 12.0152 63.373 12.2863 61.2987 12.2863H60.2519C60.2519 13.0996 60.2519 13.9419 60.2519 14.8133C60.2519 15.6653 60.2616 16.5367 60.281 17.4274C60.281 18.2213 60.6396 18.7054 61.3569 18.8797L62.2292 19.112V19.722H54.5524ZM60.2519 11.444H61.4732C62.4425 11.444 63.2276 11.2988 63.8286 11.0083C64.4489 10.6985 64.9045 10.1757 65.1953 9.43983C65.5054 8.70401 65.6605 7.68741 65.6605 6.39004C65.6605 5.09267 65.4957 4.08575 65.1662 3.36929C64.856 2.63347 64.3811 2.12033 63.7413 1.82987C63.1016 1.52005 62.3068 1.36514 61.3569 1.36514H60.281C60.2616 2.70124 60.2519 4.05671 60.2519 5.43154C60.2519 6.787 60.2519 8.15214 60.2519 9.52697V11.444Z" fill="url(#paint3_linear_133_179)"/>
<path d="M24.9423 41.5062V40.8963L25.7856 40.6639C26.1539 40.5671 26.4059 40.3831 26.5416 40.112C26.6967 39.8409 26.7743 39.5118 26.7743 39.1245V25.0664C26.5998 24.6985 26.4447 24.4274 26.309 24.2531C26.1927 24.0595 26.0667 23.8949 25.931 23.7593C25.7953 23.6238 25.6111 23.4689 25.3785 23.2946L24.8551 22.917V22.3071H29.8275L39.4817 35.4938V24.7178C39.4817 24.3306 39.4138 23.9917 39.2781 23.7012C39.1618 23.4108 38.9098 23.2171 38.5221 23.1203L37.6497 22.917V22.3071H41.9825V22.917L41.2555 23.1203C40.8872 23.2365 40.6545 23.4398 40.5576 23.7303C40.4801 24.0014 40.4413 24.3306 40.4413 24.7178V41.6224H38.8129L27.7339 26.4025V39.0954C27.7339 39.5021 27.792 39.8409 27.9083 40.112C28.0247 40.3831 28.267 40.5671 28.6353 40.6639L29.4204 40.8963V41.5062H24.9423Z" fill="#393939"/>
<path d="M43.3923 41.5062V40.8963L43.9739 40.6929C44.3228 40.5961 44.5652 40.4315 44.7009 40.1992C44.8366 39.9474 44.9141 39.6086 44.9335 39.1826V24.5726C44.9141 24.166 44.8463 23.8562 44.7299 23.6432C44.6136 23.4108 44.3713 23.2365 44.003 23.1203L43.3923 22.917V22.3071H57.2338L57.4374 26.9544H56.6232L55.46 24.3402C55.3049 23.9723 55.1304 23.6916 54.9366 23.4979C54.7427 23.2849 54.4519 23.1784 54.0642 23.1784H49.1208C49.1015 24.379 49.0918 25.6183 49.0918 26.8963C49.0918 28.1549 49.0918 29.5781 49.0918 31.166H51.9706C52.3583 31.166 52.6491 31.0692 52.8429 30.8755C53.0562 30.6625 53.25 30.3817 53.4245 30.0332L53.9188 28.9295H54.5586V34.3029H53.9188L53.3954 33.1992C53.2403 32.8506 53.0659 32.5698 52.872 32.3568C52.6781 32.1438 52.3874 32.0373 51.9996 32.0373H49.0918C49.0918 33.4315 49.0918 34.6321 49.0918 35.639C49.0918 36.6459 49.0918 37.5463 49.0918 38.3403C49.1111 39.1148 49.1208 39.8797 49.1208 40.6349H54.704C55.0917 40.6349 55.3922 40.538 55.6054 40.3444C55.8186 40.1314 55.9931 39.8409 56.1288 39.473L57.2047 36.8589H58.0189L57.8154 41.5062H43.3923Z" fill="#393939"/>
<path d="M65.4615 41.6224L60.4309 24.5145C60.2952 24.0885 60.1401 23.769 59.9656 23.556C59.7912 23.343 59.5004 23.1687 59.0933 23.0332L58.7443 22.917V22.3071H66.2466V22.917L65.636 23.1203C65.1901 23.2559 64.8993 23.4495 64.7636 23.7012C64.6473 23.953 64.6473 24.3015 64.7636 24.7469L67.9332 36.6556L71.3936 26.3444L70.8702 24.6597C70.7345 24.2531 70.5988 23.9433 70.4631 23.7303C70.3274 23.4979 70.1044 23.314 69.7942 23.1784L69.1545 22.917V22.3071H76.2788V22.917L75.4646 23.1784C75.0769 23.314 74.854 23.5076 74.7958 23.7593C74.7376 24.0111 74.7764 24.3499 74.9121 24.7759L78.576 36.8299L81.9492 24.9502C82.0849 24.5048 82.1236 24.1176 82.0655 23.7884C82.0073 23.4592 81.7553 23.2268 81.3094 23.0913L80.7279 22.917V22.3071H85.0315V22.917L84.3045 23.1494C83.9168 23.2849 83.6357 23.4882 83.4613 23.7593C83.3062 24.0111 83.1705 24.3499 83.0542 24.7759L78.2852 41.6224H76.2788L71.9752 28.0871L67.4679 41.6224H65.4615Z" fill="#393939"/>
<path d="M91.614 42C90.5478 42 89.4622 41.8645 88.3572 41.5934C87.2716 41.3416 86.3604 41.0028 85.6238 40.5768L85.7982 36.5394H86.6415L87.543 38.5436C87.8144 39.1051 88.0955 39.5698 88.3863 39.9378C88.677 40.3057 89.0648 40.5864 89.5494 40.7801C89.879 40.9156 90.1891 41.0124 90.4799 41.0705C90.7901 41.1093 91.1293 41.1286 91.4977 41.1286C92.6802 41.1286 93.6107 40.8285 94.2892 40.2282C94.9871 39.6086 95.3361 38.7953 95.3361 37.7884C95.3361 36.8783 95.0938 36.1618 94.6091 35.639C94.1438 35.1162 93.3878 34.6127 92.341 34.1286L91.1487 33.6058C89.5203 32.8894 88.2312 32.0567 87.2813 31.1079C86.3507 30.1591 85.8855 28.9004 85.8855 27.3319C85.8855 26.1701 86.1763 25.1826 86.7578 24.3693C87.3588 23.5367 88.1827 22.8976 89.2295 22.4523C90.2764 22.0069 91.4977 21.7842 92.8935 21.7842C93.9209 21.7842 94.8805 21.9198 95.7723 22.1909C96.6834 22.462 97.4782 22.8299 98.1567 23.2946L97.9532 26.8963H97.1099L96.034 24.7178C95.7238 24.0788 95.4233 23.6238 95.1325 23.3527C94.8611 23.0622 94.5219 22.8783 94.1148 22.8008C93.8821 22.7621 93.6786 22.7331 93.5041 22.7137C93.349 22.6943 93.1358 22.6846 92.8644 22.6846C91.9145 22.6846 91.0906 22.9654 90.3927 23.527C89.7142 24.0692 89.3749 24.8243 89.3749 25.7925C89.3749 26.722 89.6366 27.4772 90.16 28.0581C90.6835 28.639 91.4395 29.1521 92.4282 29.5975L93.7367 30.1494C95.6172 30.9627 96.9645 31.834 97.7787 32.7635C98.5929 33.6736 99 34.8451 99 36.278C99 37.982 98.3506 39.3665 97.0517 40.4315C95.7723 41.4772 93.9597 42 91.614 42Z" fill="#393939"/>
<defs>
<linearGradient id="paint0_linear_133_179" x1="34.8292" y1="-10.2313" x2="34.8292" y2="29.7064" gradientUnits="userSpaceOnUse">
<stop stop-color="#80E67C"/>
<stop offset="1" stop-color="#43C25B"/>
</linearGradient>
<linearGradient id="paint1_linear_133_179" x1="34.8292" y1="-10.2313" x2="34.8292" y2="29.7064" gradientUnits="userSpaceOnUse">
<stop stop-color="#80E67C"/>
<stop offset="1" stop-color="#43C25B"/>
</linearGradient>
<linearGradient id="paint2_linear_133_179" x1="34.8292" y1="-10.2313" x2="34.8292" y2="29.7064" gradientUnits="userSpaceOnUse">
<stop stop-color="#80E67C"/>
<stop offset="1" stop-color="#43C25B"/>
</linearGradient>
<linearGradient id="paint3_linear_133_179" x1="34.8292" y1="-10.2313" x2="34.8292" y2="29.7064" gradientUnits="userSpaceOnUse">
<stop stop-color="#80E67C"/>
<stop offset="1" stop-color="#43C25B"/>
</linearGradient>
</defs>
</svg>
